<svg width="24" height="24" viewBox="0 0 24 24" fill="none" xmlns="http://www.w3.org/2000/svg">
<g clip-path="url(#clip0_162_57)">
<path d="M8.4806 10.725C7.32561 10.725 6.38623 11.775 6.38623 13.065C6.38623 14.355 7.32373 15.4031 8.4806 15.4031C9.63748 15.4031 10.5731 14.355 10.5731 13.065C10.5731 11.775 9.63373 10.725 8.4806 10.725ZM8.4806 14.6625C7.73061 14.6625 7.13623 13.95 7.13623 13.0744C7.13623 12.1988 7.73811 11.4844 8.4806 11.4844C9.2231 11.4844 9.8231 12.1969 9.8231 13.0744C9.8231 13.9519 9.22123 14.6531 8.4806 14.6531V14.6625Z" fill="white"/>
<path d="M22.8432 11.1713C22.3301 9.16302 21.6061 7.21468 20.6832 5.35875C20.6517 5.30016 20.6059 5.25049 20.55 5.21438C19.6438 4.67509 18.6875 4.22486 17.6944 3.87C15.8532 3.20063 14.9832 3.1875 14.9475 3.1875C14.8566 3.18661 14.7683 3.21883 14.6993 3.27817C14.6303 3.3375 14.5853 3.4199 14.5725 3.51L14.46 4.29188C12.8216 4.12938 11.171 4.12938 9.53255 4.29188L9.42005 3.51C9.40731 3.4199 9.36225 3.3375 9.29325 3.27817C9.22426 3.21883 9.13604 3.18661 9.04505 3.1875C9.00942 3.1875 8.13942 3.1875 6.29817 3.86438C5.30748 4.22148 4.35366 4.67358 3.45005 5.21438C3.39419 5.25049 3.34839 5.30016 3.31692 5.35875C2.39394 7.21465 1.66991 9.163 1.15692 11.1713C0.187546 15.0863 4.57217e-05 17.0456 4.57217e-05 17.1263C-0.00451513 17.1769 0.00127792 17.228 0.0170725 17.2763C0.032867 17.3247 0.0583328 17.3693 0.0919207 17.4075C1.05578 18.4268 2.21679 19.2395 3.50442 19.7963C4.68991 20.3005 5.93807 20.6423 7.21505 20.8125C7.28672 20.8191 7.35877 20.8049 7.42261 20.7717C7.48644 20.7384 7.53936 20.6875 7.57505 20.625L8.58755 18.8906C9.71478 19.0826 10.8566 19.1761 12 19.17C13.1436 19.1748 14.2854 19.0801 15.4125 18.8869L16.425 20.625C16.4578 20.6817 16.5047 20.7288 16.5613 20.7617C16.6179 20.7946 16.6821 20.8121 16.7475 20.8125H16.785C18.061 20.6446 19.3085 20.3053 20.4938 19.8038C21.7814 19.247 22.9424 18.4343 23.9063 17.415C23.9399 17.3768 23.9653 17.3322 23.9811 17.2838C23.9969 17.2355 24.0027 17.1844 23.9982 17.1338C24 17.0456 23.8219 15.0863 22.8432 11.1713ZM20.2069 19.1044C19.1602 19.5392 18.0657 19.8488 16.9463 20.0269L16.1813 18.7144C17.0588 18.4819 18.885 17.8781 20.2744 16.6144C20.3114 16.5813 20.3414 16.5412 20.3629 16.4965C20.3843 16.4517 20.3967 16.4032 20.3994 16.3537C20.4021 16.3041 20.395 16.2546 20.3786 16.2078C20.3621 16.161 20.3366 16.1179 20.3035 16.0809C20.2704 16.044 20.2303 16.014 20.1856 15.9925C20.1408 15.9711 20.0923 15.9586 20.0428 15.9559C19.9932 15.9532 19.9437 15.9603 19.8969 15.9768C19.8501 15.9932 19.807 16.0188 19.77 16.0519C18.0825 17.595 15.5588 18.0844 15.5325 18.09H15.5213C14.3611 18.3146 13.1818 18.4251 12 18.42C10.8187 18.4289 9.63934 18.3221 8.4788 18.1013H8.46755C8.4413 18.1013 5.92692 17.6063 4.23005 16.0631C4.15545 15.9962 4.05735 15.9617 3.95731 15.9672C3.85727 15.9726 3.76349 16.0176 3.69661 16.0922C3.62972 16.1668 3.59521 16.2649 3.60066 16.3649C3.60611 16.465 3.65108 16.5587 3.72567 16.6256C5.11505 17.8894 6.9413 18.5006 7.8188 18.7256L7.0538 20.0381C5.93413 19.8613 4.83953 19.5516 3.79317 19.1156C2.66079 18.6163 1.63328 17.9069 0.765046 17.025C0.826921 16.4794 1.08005 14.5744 1.89005 11.355C2.38306 9.4381 3.06907 7.57608 3.93755 5.7975C4.7751 5.31401 5.65347 4.90494 6.56255 4.575C7.26499 4.30509 7.99222 4.10475 8.7338 3.97688L8.79942 4.425C8.04942 4.6125 6.20255 5.14875 4.74005 6.21188C4.70028 6.24093 4.66663 6.27754 4.64101 6.3196C4.61539 6.36166 4.5983 6.40835 4.59073 6.45702C4.57543 6.5553 4.5998 6.65563 4.65848 6.73594C4.71716 6.81625 4.80534 6.86996 4.90362 6.88526C4.95229 6.89283 5.00197 6.89075 5.04982 6.87912C5.09768 6.8675 5.14278 6.84656 5.18255 6.8175C6.8363 5.61563 9.12005 5.11875 9.2813 5.08313C10.1835 4.97504 11.0914 4.92244 12 4.92563C12.9093 4.922 13.8179 4.9746 14.7207 5.08313C14.8913 5.11875 17.1582 5.61375 18.8194 6.8175C18.8997 6.87618 19.0001 6.90055 19.0983 6.88526C19.1966 6.86996 19.2848 6.81625 19.3435 6.73594C19.4022 6.65563 19.4265 6.5553 19.4112 6.45702C19.3959 6.35874 19.3422 6.27056 19.2619 6.21188C17.7994 5.14875 15.96 4.61438 15.2025 4.425L15.2682 3.97688C16.009 4.10534 16.7356 4.30566 17.4375 4.575C18.3466 4.90494 19.225 5.31401 20.0625 5.7975C20.9362 7.57551 21.6272 9.43754 22.125 11.355C22.9294 14.5744 23.1825 16.4794 23.25 17.025C22.3764 17.9045 21.3437 18.6101 20.2069 19.1044Z" fill="white"/>
<path d="M15.5193 10.725C14.3661 10.725 13.4268 11.775 13.4268 13.065C13.4268 14.355 14.3643 15.4031 15.5193 15.4031C16.6743 15.4031 17.6136 14.355 17.6136 13.065C17.6136 11.775 16.6743 10.725 15.5193 10.725ZM15.5193 14.6625C14.7693 14.6625 14.1768 13.95 14.1768 13.0744C14.1768 12.1988 14.7786 11.4844 15.5193 11.4844C16.2599 11.4844 16.8636 12.1969 16.8636 13.0744C16.8636 13.9519 16.2618 14.6531 15.5193 14.6531V14.6625Z" fill="white"/>
</g>
<defs>
<clipPath id="clip0_162_57">
<rect width="24" height="24" fill="white"/>
</clipPath>
</defs>
</svg>
