<svg width="24" height="24" viewBox="0 0 24 24" fill="none" xmlns="http://www.w3.org/2000/svg">
<path d="M21.9452 2.76464C21.5059 2.40032 20.9021 2.30657 20.373 2.5205L2.45598 9.7539C1.66783 10.0783 1.29192 10.9802 1.61632 11.7683C1.78411 12.1759 2.11809 12.4922 2.53411 12.6377L6.39934 13.9814L8.49407 20.9072C8.49828 20.9213 8.51122 20.9299 8.51665 20.9435C8.53832 20.9987 8.56999 21.0496 8.60997 21.0934C8.62487 21.111 8.6411 21.1276 8.65843 21.1428C8.71062 21.1862 8.77123 21.2182 8.83641 21.2369C8.84636 21.2398 8.85301 21.2487 8.86315 21.251L8.86901 21.2507L8.87194 21.2519C8.90532 21.2594 8.93938 21.263 8.9735 21.2627C9.01812 21.2611 9.06237 21.2534 9.10485 21.2398C9.11309 21.2375 9.12139 21.2382 9.12944 21.2355C9.20201 21.2099 9.26757 21.1678 9.32097 21.1125C9.3272 21.1063 9.33666 21.1052 9.34264 21.0986L12.3563 17.7734L16.7528 21.1777C17.0199 21.3866 17.3493 21.5001 17.6883 21.5C18.4217 21.4999 19.0548 20.9861 19.2059 20.2685L22.4687 4.25097C22.5817 3.69689 22.3805 3.1256 21.9452 2.76464ZM9.58782 15.2949L8.8806 18.7317L7.40575 13.8539L14.7206 10.0449L9.72356 15.042C9.65447 15.1111 9.60729 15.1991 9.58782 15.2949ZM18.2265 20.0674C18.1882 20.2515 18.0568 20.4024 17.8798 20.4658C17.7068 20.5323 17.5115 20.5027 17.3661 20.3877L12.6025 16.6992C12.3962 16.5395 12.1019 16.5655 11.9267 16.7588L9.83104 19.071L10.537 15.6435L17.7255 8.4541C17.9209 8.25909 17.9212 7.94268 17.7262 7.74737C17.5719 7.59277 17.3352 7.55627 17.1415 7.65722L6.77819 13.0539L2.86125 11.6924C2.64775 11.6221 2.50255 11.4239 2.49993 11.1992C2.48961 10.9729 2.62358 10.7648 2.83391 10.6807L20.748 3.44824C20.9351 3.36883 21.1511 3.40209 21.3056 3.53417C21.4594 3.65832 21.5301 3.85858 21.4882 4.05175L18.2265 20.0674Z" fill="white"/>
</svg>
