<?xml version="1.0" encoding="UTF-8"?>
<svg id="Layer_2" data-name="Layer 2" xmlns="http://www.w3.org/2000/svg" xmlns:xlink="http://www.w3.org/1999/xlink" viewBox="0 0 344.37 124.85">
  <defs>
    <linearGradient id="linear-gradient" x1="-495.27" y1="-903.53" x2="143.51" y2="202.87" gradientUnits="userSpaceOnUse">
      <stop offset="0" stop-color="#bfe7ff"/>
      <stop offset=".14" stop-color="#9ed2ff"/>
      <stop offset=".44" stop-color="#4a9eff"/>
      <stop offset=".53" stop-color="#3390ff"/>
      <stop offset="1" stop-color="#0063eb"/>
    </linearGradient>
  </defs>
  <g id="Layer_1-2" data-name="Layer 1">
    <g>
      <rect width="124.85" height="124.85" rx="24" ry="24" style="fill: url(#linear-gradient);"/>
      <path d="M143.71,28.91c0-3.94.59-7.51,1.76-10.73,1.18-3.21,2.87-5.96,5.08-8.24,2.21-2.28,4.87-4.04,7.99-5.29,3.12-1.25,6.65-1.87,10.58-1.87,4.51,0,8.46.8,11.84,2.41,3.38,1.61,6.23,3.85,8.53,6.73l-7.34,5.04c-1.54-1.87-3.37-3.32-5.51-4.36-2.14-1.03-4.64-1.55-7.52-1.55-2.59,0-4.91.42-6.95,1.26-2.04.84-3.76,2.03-5.15,3.56-1.39,1.54-2.46,3.41-3.2,5.62-.75,2.21-1.12,4.68-1.12,7.42s.37,5.21,1.12,7.42c.74,2.21,1.81,4.08,3.2,5.62,1.39,1.54,3.11,2.72,5.15,3.56,2.04.84,4.36,1.26,6.95,1.26,2.88,0,5.39-.52,7.52-1.55,2.14-1.03,3.97-2.48,5.51-4.36l7.34,5.04c-2.3,2.88-5.15,5.12-8.53,6.73-3.38,1.61-7.33,2.41-11.84,2.41-3.94,0-7.46-.62-10.58-1.87-3.12-1.25-5.79-3.01-7.99-5.29-2.21-2.28-3.9-5.03-5.08-8.24-1.18-3.21-1.76-6.79-1.76-10.73Z" style="fill: #fff;"/>
      <path d="M191.01,36.11c0-2.78.44-5.32,1.33-7.6.89-2.28,2.15-4.22,3.78-5.83,1.63-1.61,3.6-2.85,5.9-3.74,2.3-.89,4.85-1.33,7.63-1.33s5.32.44,7.6,1.33c2.28.89,4.24,2.14,5.87,3.74,1.63,1.61,2.89,3.55,3.78,5.83.89,2.28,1.33,4.81,1.33,7.6s-.44,5.33-1.33,7.63c-.89,2.3-2.15,4.27-3.78,5.9-1.63,1.63-3.59,2.89-5.87,3.78-2.28.89-4.81,1.33-7.6,1.33s-5.33-.44-7.63-1.33c-2.3-.89-4.27-2.15-5.9-3.78-1.63-1.63-2.89-3.6-3.78-5.9-.89-2.3-1.33-4.85-1.33-7.63ZM199.65,36.18c0,3.36.9,5.98,2.7,7.85s4.21,2.81,7.24,2.81,5.45-.94,7.27-2.81c1.82-1.87,2.74-4.49,2.74-7.85s-.91-5.98-2.74-7.85c-1.83-1.87-4.25-2.81-7.27-2.81s-5.44.94-7.24,2.81-2.7,4.49-2.7,7.85Z" style="fill: #fff;"/>
      <path d="M249.76,17.6c2.78,0,5.33.44,7.63,1.33,2.3.89,4.27,2.15,5.9,3.78,1.63,1.63,2.89,3.6,3.78,5.9.89,2.3,1.33,4.85,1.33,7.63v17.86h-8.64v-3.46c-.86,1.1-2.2,2.06-4,2.88s-4.02,1.22-6.66,1.22-4.99-.44-7.2-1.33c-2.21-.89-4.1-2.15-5.69-3.78-1.58-1.63-2.82-3.6-3.71-5.9-.89-2.3-1.33-4.85-1.33-7.63s.44-5.32,1.33-7.6c.89-2.28,2.15-4.22,3.78-5.83,1.63-1.61,3.59-2.85,5.87-3.74,2.28-.89,4.81-1.33,7.6-1.33ZM259.77,36.18c0-3.36-.9-5.98-2.7-7.85s-4.21-2.81-7.24-2.81-5.45.94-7.27,2.81c-1.83,1.87-2.74,4.49-2.74,7.85s.91,5.98,2.74,7.85c1.82,1.87,4.25,2.81,7.27,2.81s5.44-.94,7.24-2.81,2.7-4.49,2.7-7.85Z" style="fill: #fff;"/>
      <path d="M280.29,36.18c0,3.36.9,5.98,2.7,7.85s4.21,2.81,7.24,2.81c2.21,0,4.09-.5,5.65-1.51,1.56-1.01,2.72-2.42,3.49-4.25h9c-.96,4.22-3.02,7.56-6.19,10.01-3.17,2.45-7.13,3.67-11.88,3.67-2.78,0-5.33-.44-7.63-1.33-2.3-.89-4.27-2.15-5.9-3.78-1.63-1.63-2.89-3.6-3.78-5.9-.89-2.3-1.33-4.85-1.33-7.63s.44-5.32,1.33-7.6c.89-2.28,2.15-4.22,3.78-5.83,1.63-1.61,3.6-2.85,5.9-3.74,2.3-.89,4.85-1.33,7.63-1.33,4.7,0,8.64,1.21,11.81,3.64,3.17,2.42,5.23,5.7,6.19,9.83h-9c-.77-1.78-1.93-3.14-3.49-4.1-1.56-.96-3.42-1.44-5.58-1.44-3.02,0-5.44.94-7.24,2.81s-2.7,4.49-2.7,7.85Z" style="fill: #fff;"/>
      <path d="M319.89,54.11h-8.64V3.71h8.64v50.4ZM328.96,17.46c2.69,0,5,.49,6.95,1.48,1.94.98,3.54,2.23,4.79,3.74,1.25,1.51,2.17,3.16,2.77,4.93.6,1.78.9,3.46.9,5.04v21.46h-8.64v-21.24c0-1.3-.22-2.4-.65-3.31-.43-.91-1.01-1.68-1.73-2.3-.72-.62-1.56-1.08-2.52-1.37-.96-.29-1.97-.43-3.02-.43s-2.06.14-3.02.43c-.96.29-1.8.74-2.52,1.37-.72.62-1.3,1.39-1.73,2.3-.43.91-.65,2.02-.65,3.31v21.24h-8.64l2.88-20.02c.24-1.54.59-3.28,1.04-5.22.46-1.94,1.22-3.76,2.3-5.44,1.08-1.68,2.53-3.1,4.36-4.25,1.82-1.15,4.2-1.73,7.13-1.73Z" style="fill: #fff;"/>
      <g>
        <path d="M157.19,77.08h-13.58v-7.47h35.36v7.47h-13.65v38.03h-8.12v-38.03Z" style="fill: #fff;"/>
        <path d="M179.04,96.91c0-4.94,1.45-8.66,4.35-11.15,2.9-2.49,6.83-3.74,11.77-3.74v7.15c-2.6,0-4.64.64-6.11,1.92-1.47,1.28-2.21,3.22-2.21,5.82v18.2h-7.8v-18.2Z" style="fill: #fff;"/>
        <path d="M215.32,82.15c2.51,0,4.81.4,6.89,1.2,2.08.8,3.86,1.94,5.33,3.41,1.47,1.47,2.61,3.25,3.41,5.33.8,2.08,1.2,4.38,1.2,6.89v16.12h-7.8v-3.12c-.78,1-1.98,1.86-3.61,2.6s-3.63,1.1-6.01,1.1-4.51-.4-6.5-1.2c-1.99-.8-3.71-1.94-5.13-3.41-1.43-1.47-2.55-3.25-3.35-5.33-.8-2.08-1.2-4.38-1.2-6.89s.4-4.8,1.2-6.86c.8-2.06,1.94-3.81,3.41-5.26,1.47-1.45,3.24-2.58,5.3-3.38,2.06-.8,4.34-1.2,6.86-1.2ZM224.35,98.92c0-3.03-.81-5.4-2.44-7.08-1.62-1.69-3.8-2.54-6.53-2.54s-4.92.84-6.56,2.54c-1.65,1.69-2.47,4.05-2.47,7.08s.82,5.39,2.47,7.08c1.65,1.69,3.83,2.53,6.56,2.53s4.91-.84,6.53-2.53c1.62-1.69,2.44-4.05,2.44-7.08Z" style="fill: #fff;"/>
        <path d="M271.74,69.61v29.32c0,2.6-.44,4.94-1.33,7.02-.89,2.08-2.09,3.83-3.61,5.26-1.52,1.43-3.32,2.53-5.4,3.28-2.08.76-4.31,1.14-6.69,1.14s-4.71-.4-6.73-1.2c-2.02-.8-3.76-1.94-5.23-3.41-1.47-1.47-2.61-3.23-3.41-5.27-.8-2.04-1.2-4.31-1.2-6.82s.4-4.81,1.2-6.89,1.92-3.86,3.35-5.33c1.43-1.47,3.14-2.61,5.13-3.41s4.16-1.2,6.5-1.2,4.33.37,5.98,1.1c1.65.74,2.86,1.6,3.64,2.6v-16.18h7.8ZM245.94,98.86c0,3.03.81,5.39,2.44,7.08s3.8,2.54,6.53,2.54,4.92-.84,6.57-2.54c1.65-1.69,2.47-4.05,2.47-7.08s-.82-5.39-2.47-7.08c-1.65-1.69-3.83-2.54-6.57-2.54s-4.91.84-6.53,2.54-2.44,4.05-2.44,7.08Z" style="fill: #fff;"/>
        <path d="M294.18,108.54c3.29,0,5.74-1.17,7.35-3.51h8.51c-1.08,3.29-3,5.89-5.75,7.8-2.75,1.91-6.1,2.86-10.04,2.86-2.51,0-4.81-.4-6.89-1.2-2.08-.8-3.86-1.94-5.33-3.41-1.47-1.47-2.61-3.25-3.41-5.33s-1.2-4.38-1.2-6.89.4-4.8,1.2-6.86c.8-2.06,1.94-3.81,3.41-5.26,1.47-1.45,3.25-2.58,5.33-3.38,2.08-.8,4.38-1.2,6.89-1.2s4.8.4,6.86,1.2c2.06.8,3.82,1.93,5.3,3.38,1.47,1.45,2.61,3.21,3.41,5.26.8,2.06,1.2,4.34,1.2,6.86,0,.48-.01.92-.03,1.33-.02.41-.05.83-.1,1.27h-25.42c.43,2.25,1.41,4,2.93,5.23,1.52,1.24,3.44,1.85,5.78,1.85ZM302.37,94.31c-.69-1.6-1.75-2.84-3.15-3.71-1.41-.87-3.09-1.3-5.04-1.3s-3.62.43-5,1.3c-1.39.87-2.43,2.1-3.12,3.71h16.32Z" style="fill: #fff;"/>
        <path d="M317,96.91c0-4.94,1.45-8.66,4.35-11.15,2.9-2.49,6.83-3.74,11.77-3.74v7.15c-2.6,0-4.64.64-6.11,1.92-1.47,1.28-2.21,3.22-2.21,5.82v18.2h-7.8v-18.2Z" style="fill: #fff;"/>
      </g>
      <path d="M84.1,91.98c-3.07,1.77-7,.72-8.77-2.35l-22.5-38.97-22.5,38.97c-1.77,3.07-5.7,4.12-8.77,2.35-3.07-1.77-4.13-5.7-2.35-8.77l27.7-47.98c1.25-2.17,3.58-3.33,5.92-3.2.12,0,.23-.01.35-.01,2.22,0,4.38,1.15,5.57,3.21l27.7,47.98c1.77,3.07.72,7-2.35,8.77Z" style="fill: #fff;"/>
      <circle cx="99.72" cy="38.73" r="6.79" style="fill: #fff;"/>
      <rect x="93.3" y="48.89" width="12.84" height="44.03" rx="5.62" ry="5.62" style="fill: #fff;"/>
      <rect x="46.4" y="48.89" width="12.84" height="44.03" rx="5.62" ry="5.62" transform="translate(-18.08 123.73) rotate(-90)" style="fill: #fff;"/>
    </g>
  </g>
</svg>